<svg fill="none" height="24" viewBox="0 0 24 24" width="24" xmlns="http://www.w3.org/2000/svg"><path clip-rule="evenodd" d="m12 4c-4.412 0-8 3.588-8 8s3.588 8 8 8 8-3.588 8-8-3.588-8-8-8zm0 14.222c-1.6495-.0021-3.23089-.6583-4.39728-1.8247s-1.8226-2.7478-1.82472-4.3973c.00212-1.6495.65833-3.23089 1.82472-4.39728s2.74778-1.8226 4.39728-1.82472c1.6495.00212 3.2309.65833 4.3973 1.82472s1.8226 2.74778 1.8247 4.39728c-.0021 1.6495-.6583 3.2309-1.8247 4.3973s-2.7478 1.8226-4.3973 1.8247zm.889-6.59v-3.184c0-.489-.4-.889-.889-.889s-.889.4-.889.89v3.555c0 .248.103.471.268.633l2.195 2.194c.167.1662.3929.2594.6285.2594s.4615-.0932.6285-.2594c.1659-.1669.2589-.3927.2589-.628s-.093-.4611-.2589-.628z" fill="#000" fill-rule="evenodd"/></svg>